<svg height="486pt" viewBox="0 -9 486.25161 486" width="486pt" xmlns="http://www.w3.org/2000/svg" xmlns:xlink="http://www.w3.org/1999/xlink"><linearGradient id="lg1"><stop offset=".322" stop-color="#a163f5"/><stop offset=".466" stop-color="#b074ee"/><stop offset=".752" stop-color="#d8a1dd"/><stop offset=".898" stop-color="#efbad3"/></linearGradient><linearGradient id="linear0" gradientUnits="userSpaceOnUse" x1="243.127" x2="243.127" xlink:href="#lg1" y1="466.125805" y2="4.870805"/><linearGradient id="linear1" gradientUnits="userSpaceOnUse" x1="194.133" x2="194.133" xlink:href="#lg1" y1="466.125805" y2="4.870805"/><linearGradient id="linear2" gradientUnits="userSpaceOnUse" x1="194.825" x2="194.825" xlink:href="#lg1" y1="466.125805" y2="4.870805"/><linearGradient id="linear3" gradientUnits="userSpaceOnUse" x1="126.999" x2="126.999" xlink:href="#lg1" y1="466.125805" y2="4.870805"/><path d="m474.832031 404.054688-81.632812-78.453126c-2.324219-2.230468-5.992188-2.230468-8.316407 0l-18.898437 18.164063-30.917969-29.710937c32.53125-33.367188 52.488282-78.214844 52.488282-127.464844 0-102.816406-86.929688-186.464844-193.777344-186.464844s-193.777344 83.648438-193.777344 186.464844 86.933594 186.460937 193.777344 186.460937c48.972656.167969 96.253906-17.890625 132.644531-50.664062l30.902344 29.699219-18.773438 18.039062c-1.175781 1.132812-1.839843 2.695312-1.839843 4.328125s.664062 3.195313 1.839843 4.324219l81.671875 78.488281c15.320313 14.472656 39.273438 14.460937 54.578125-.027344.503907-.476562.996094-.96875 1.472657-1.472656 13.847656-14.691406 13.203124-37.8125-1.441407-51.710937zm-281.054687-43c-100.230469 0-181.777344-78.261719-181.777344-174.460938s81.546875-174.46875 181.777344-174.46875c100.230468 0 181.777344 78.265625 181.777344 174.460938 0 96.199218-81.546876 174.464843-181.777344 174.464843zm273.773437 86.472656c-.324219.339844-.65625.671875-1.027343 1.019531-10.660157 10.085937-27.339844 10.101563-38.019532.035156l-77.136718-74.125 37.671874-36.207031 77.515626 74.5c9.859374 9.335938 10.304687 24.890625.996093 34.777344zm0 0" fill="url(#linear0)"/><path d="m317.011719 161.019531c-1.84375-1.082031-4.113281-1.121093-5.988281-.101562l-56.890626 31.207031v-24.867188c-.039062-8.875-7.210937-16.066406-16.085937-16.132812h-154.269531c-4.21875.050781-8.242188 1.78125-11.179688 4.808594-2.9375 3.03125-4.546875 7.105468-4.464844 11.324218v107.5c0 8.820313 6.820313 16.367188 15.644532 16.367188h154.269531c8.921875-.175781 16.066406-7.445312 16.085937-16.367188v-24.855468l56.800782 31.191406c.875.484375 1.863281.738281 2.863281.738281 1.128906.003907 2.238281-.285156 3.226563-.835937 1.863281-1.058594 3.042968-3.015625 3.109374-5.164063v-109.648437c-.070312-2.148438-1.253906-4.105469-3.121093-5.164063zm-78.964844 118.105469h-154.269531c-2.207032 0-3.644532-2.164062-3.644532-4.367188v-107.5c0-2.207031 1.4375-4.132812 3.644532-4.132812h154.269531c2.25.058594 4.050781 1.882812 4.085937 4.132812v107.5c-.015624 2.300782-1.792968 4.199219-4.085937 4.367188zm70.085937-13.425781-54-29.484375v-30.40625l54-29.488282zm0 0" fill="url(#linear1)"/><path d="m194.824219 146.59375c17.722656 0 32.085937-14.367188 32.082031-32.089844 0-17.71875-14.367188-32.085937-32.089844-32.082031-17.71875 0-32.082031 14.367187-32.082031 32.085937.019531 17.714844 14.375 32.070313 32.089844 32.085938zm0-52.171875c11.09375 0 20.085937 8.996094 20.082031 20.089844 0 11.09375-8.996094 20.085937-20.089844 20.082031-11.089844 0-20.082031-8.992188-20.082031-20.085938.011719-11.089843 9-20.074218 20.089844-20.082031zm0 0" fill="url(#linear2)"/><path d="m127 146.59375c17.71875 0 32.085938-14.363281 32.085938-32.085938 0-17.722656-14.367188-32.085937-32.085938-32.085937-17.722656 0-32.089844 14.363281-32.089844 32.085937.023438 17.714844 14.375 32.066407 32.089844 32.085938zm0-52.171875c11.09375 0 20.085938 8.992187 20.085938 20.085937s-8.992188 20.085938-20.085938 20.085938-20.089844-8.992188-20.089844-20.085938c.015625-11.085937 9.003906-20.070312 20.089844-20.082031zm0 0" fill="url(#linear3)"/></svg>